<svg xmlns="http://www.w3.org/2000/svg" viewBox="0 0 85 85"><defs><style>.cls-1{fill:#9cc0ff;}.cls-2{fill:#276ef1;}.cls-3{fill:#fff;}</style></defs><title>24_7 Support</title><g id="Hand_Ref" data-name="Hand Ref"><path class="cls-1" d="M16.35,0H77a8,8,0,0,1,8,8V43.93a8,8,0,0,1-8,8H24.35a8,8,0,0,1-8-8V0a0,0,0,0,1,0,0Z" transform="translate(101.35 51.93) rotate(-180)"/><polygon class="cls-1" points="85 71.3 85 45.71 68.33 51.92 85 71.3"/><path class="cls-2" d="M8,26.93H60.17a8.17,8.17,0,0,1,8.17,8.17V61.22a8,8,0,0,1-8,8H0a0,0,0,0,1,0,0V34.93A8,8,0,0,1,8,26.93Z"/><polygon class="cls-2" points="0 85 0 64.16 15.82 69.22 0 85"/><path class="cls-2" d="M68.33,34.66V61.5a7.73,7.73,0,0,1-7.73,7.73H0V34.66a7.73,7.73,0,0,1,7.73-7.73H60.61A7.73,7.73,0,0,1,68.33,34.66Z"/><path class="cls-3" d="M68.33,34.66V51.93H24.07a7.73,7.73,0,0,1-7.73-7.73V26.93H60.61A7.73,7.73,0,0,1,68.33,34.66Z"/><ellipse cx="50.82" cy="39.43" rx="2.83" ry="2.82"/><ellipse cx="42.34" cy="39.43" rx="2.83" ry="2.82"/><ellipse cx="33.85" cy="39.43" rx="2.83" ry="2.82"/></g></svg>