<svg id="Layer_1" data-name="Layer 1" xmlns="http://www.w3.org/2000/svg" viewBox="0 0 85 85"><defs><style>.cls-1{fill:#fff;}.cls-2{fill:#276ef1;}.cls-3{fill:#9cc0ff;}</style></defs><title>Community Guidelines</title><rect class="cls-1" x="51.64" y="0.01" width="23.41" height="27.01"/><path d="M83.62,29a4.38,4.38,0,0,1-.19.82A10.06,10.06,0,0,1,73.56,38l-.58,0-.11,0L65,35.56l2.62-16.94-3.11-4.9,0-.05.18-.38,2.6-5.46,1.79-3.75.2-.43a6,6,0,0,1,1-1.53L70.46,2l0,0,.16-.16.1-.09.06-.06L71,1.49l.37-.27L71.77,1a6.21,6.21,0,0,1,.81-.42c.15-.06.31-.13.47-.18l.38-.12.36-.09.17,0a1.65,1.65,0,0,1,.32-.06l.3,0,.29,0h.62l.39,0,.22,0,.21.05.2,0a1,1,0,0,1,.23.06l.36.13.18.08.23.12a1.19,1.19,0,0,1,.15.09s0,0,0,0A2.71,2.71,0,0,1,78,.91a.75.75,0,0,1,.17.14,1.71,1.71,0,0,1,.2.18,1.62,1.62,0,0,1,.18.19,1,1,0,0,1,.13.16l.09.11a2.2,2.2,0,0,1,.17.25,1.78,1.78,0,0,1,.17.3,3.18,3.18,0,0,1,.16.32c.16.37.31.76.44,1.15l0,.14a7.7,7.7,0,0,1,.26.94.53.53,0,0,0,0,.12c0,.2.08.4.11.61s.06.4.08.6v0s0,0,0,0c0,.19,0,.38,0,.56a12,12,0,0,1-1,5.39h0c-2.2,6.48,1.42,7.64,2.93,10.7a.25.25,0,0,0,0,.07A10.07,10.07,0,0,1,83.57,27,8.91,8.91,0,0,1,83.62,29Z"/><path class="cls-2" d="M83.62,40.49l-3.79,1.77L77.44,62.12c-.23,3-1.09,4.55-4.3,4.55h-7.8a3.63,3.63,0,0,0-3.67,2.5L59.93,75.5l-.78,2.87h0l-.95,3.33A4.55,4.55,0,0,1,53.83,85H33.74l4.41-15.83a3.46,3.46,0,0,1,2.67-2.4,4.71,4.71,0,0,1,1-.1h7.8c3.22,0,4.07-1.51,4.31-4.55l2.38-19.86,3.79-1.77a1.58,1.58,0,0,0,.38-2.62c-.9-.8-2-1.87-3.22-3-2.12-2-4.38-4.19-5.56-5.34-.11-.11-.22-.21-.3-.3a1.64,1.64,0,0,1-.5-1.33c0-.44.07-.87.1-1.29,2.81-2,5.39-3,7.49-4.25a9.44,9.44,0,0,0,4.2-4.73l1.85-3.94,2.77-5.87c.7.63,1.38,1.31,2,2a27.82,27.82,0,0,1,1.89,2.3c.44.59.85,1.18,1.24,1.79,2.11,3.4,2.41,6.49,2.19,10.72-.05,1-.14,2.1-.23,3.26a1.7,1.7,0,0,0,.48,1.32l.31.31c1.19,1.15,3.45,3.33,5.57,5.34C82,36,83.11,37.07,84,37.87A1.58,1.58,0,0,1,83.62,40.49Z"/><path class="cls-3" d="M60.1,29a3.72,3.72,0,0,1-.19.82A10.06,10.06,0,0,1,50,38l-.58,0-.11,0-7.84-2.4L43.15,25l1-6.35L41,13.72l0-.05.18-.38,2.6-5.46,1.76-3.7.23-.47a5.91,5.91,0,0,1,1.05-1.54L46.94,2l0,0a.81.81,0,0,1,.16-.16l.1-.09a.34.34,0,0,1,.06-.06,1.39,1.39,0,0,1,.19-.15l.37-.28A4.13,4.13,0,0,1,48.24,1a8.89,8.89,0,0,1,.81-.42c.16-.06.32-.13.48-.18h0L49.9.25l.44-.11a3.21,3.21,0,0,1,.43-.07l.29,0,.28,0H52l.29,0h.09l.16,0,.35.07a1.29,1.29,0,0,1,.21.06,2.78,2.78,0,0,1,.38.12l.24.1L54,.55A2.07,2.07,0,0,1,54.2.7a.8.8,0,0,1,.21.15l.1.06.22.18.17.16.17.18.12.15.09.11.17.25c0,.08.09.15.14.24s.13.25.19.38.16.38.23.57.09.23.13.36l0,.08.09.27c0,.15.09.31.13.47a1.77,1.77,0,0,1,.08.33A10.17,10.17,0,0,1,56.71,6c0,.13,0,.25,0,.38a1.48,1.48,0,0,1,0,.21,2.45,2.45,0,0,1,0,.27.06.06,0,0,1,0,0c0,.21,0,.41,0,.61a11.93,11.93,0,0,1-1,4.65h0c-2.1,6.15,1.06,7.5,2.67,10.24a4.79,4.79,0,0,1,.25.45l0,.07A9.93,9.93,0,0,1,60.05,27,8.91,8.91,0,0,1,60.1,29Z"/><path class="cls-1" d="M60.1,40.49l-3.79,1.77L53.93,62.12c-.24,3-1.09,4.55-4.31,4.55h-7.8a4.71,4.71,0,0,0-1,.1,3.46,3.46,0,0,0-2.67,2.4L33.74,85H4.33A3.86,3.86,0,0,1,.46,81.14V35A10.94,10.94,0,0,1,5.88,25.4h0c4.36-2.6,8-3.32,9.75-7.73l1.85-3.94,2.75-5.89L22,4.13l.22-.48c.06-.13.13-.26.2-.38l.1-.17h0a1.32,1.32,0,0,1,.16-.25c.09-.13.18-.26.28-.38a3.73,3.73,0,0,1,.26-.3l0,0,0,0,.31-.31.35-.3a3,3,0,0,1,.31-.22l0,0s0,0,0,0A4,4,0,0,1,24.73,1a8.73,8.73,0,0,1,.8-.42A4.68,4.68,0,0,1,26,.37h0a0,0,0,0,0,0,0l.34-.1.43-.11a3.49,3.49,0,0,1,.43-.07l.3,0,.27,0h2.43c.3.1.6.2.9.32.8.28,1.59.6,2.37,1,.48.2,1,.44,1.5.69l1.2.6.53.27a41.06,41.06,0,0,1,4.31,2.77c.94.7,1.85,1.44,2.71,2.22,0,0,0,0,0,0a27.5,27.5,0,0,1,2,2c.66.73,1.31,1.5,1.9,2.3.43.59.83,1.18,1.23,1.79,2.11,3.4,2.41,6.49,2.19,10.72,0,.63-.07,1.29-.13,2,0,.42-.06.85-.1,1.29a1.64,1.64,0,0,0,.5,1.33c.08.09.19.19.3.3,1.18,1.15,3.44,3.33,5.56,5.34,1.18,1.1,2.32,2.17,3.22,3A1.58,1.58,0,0,1,60.1,40.49Z"/><path class="cls-2" d="M51.34,0l-.28,0-.29,0a3.21,3.21,0,0,0-.43.07L49.9.25l-.34.11h0c-.16,0-.32.12-.48.18a8.89,8.89,0,0,0-.81.42,4.13,4.13,0,0,0-.38.25,3.27,3.27,0,0,0-.37.28,1.39,1.39,0,0,0-.19.15.34.34,0,0,0-.06.06l-.1.09A.81.81,0,0,0,47,2l0,0-.13.13a5.91,5.91,0,0,0-1.05,1.54l-.23.47L43.78,7.85,41,13.72l-1.85,3.94A9.42,9.42,0,0,1,35,22.38c-1.63-2.73-4.78-4.09-2.69-10.23h0a11.91,11.91,0,0,0,1-5.38c0-.19,0-.37,0-.56V6.12c0-.2-.05-.41-.08-.61s-.07-.4-.12-.6a8.5,8.5,0,0,0-.32-1.2,11.31,11.31,0,0,0-.43-1.15,3.18,3.18,0,0,0-.16-.32A2.75,2.75,0,0,0,31.93,2l0-.06-.15-.21a4.4,4.4,0,0,0-.4-.46l-.16-.14C31.12,1,31.05,1,31,.9L30.84.8,30.59.63,30.38.52l-.22-.1L29.94.33,29.7.25,29.47.17,29.24.12h0L29,.08l-.19,0h-.1l-.3,0Z"/><polygon class="cls-3" points="45.53 4.13 43.78 7.85 41.02 13.72 40.99 13.67 41.17 13.29 43.77 7.83 45.53 4.13"/><path d="M36.58,29a3.72,3.72,0,0,1-.19.82,9.9,9.9,0,0,1-2.32,4.73l-.33.35A10,10,0,0,1,26.52,38l-.58,0-.11,0L18,35.56,19.62,25l1-6.35-3.11-4.9,2.75-5.89L22,4.13l.22-.48c.06-.13.13-.26.2-.38l.1-.17h0a1.32,1.32,0,0,1,.16-.25c.09-.13.18-.26.28-.38a3.73,3.73,0,0,1,.26-.3l0,0,0,0,.31-.31.35-.3a3,3,0,0,1,.31-.22l0,0s0,0,0,0A4,4,0,0,1,24.73,1a8.73,8.73,0,0,1,.8-.42A4.68,4.68,0,0,1,26,.37h0a0,0,0,0,0,0,0l.34-.1.43-.11a3.49,3.49,0,0,1,.43-.07l.3,0,.27,0h.63l.3,0h.09l.19,0,.19,0h0l.23.06.23.07.24.08.22.09.22.1.21.12.25.16L31,.9l.21.18.16.14a4.4,4.4,0,0,1,.4.46l.15.22,0,.05a2.75,2.75,0,0,1,.17.29,3.18,3.18,0,0,1,.16.32,11.31,11.31,0,0,1,.43,1.15A9.63,9.63,0,0,1,33,4.91c.05.2.08.4.12.61s.06.4.08.6v.07c0,.19,0,.38,0,.57a11.8,11.8,0,0,1-1,5.38h0c-2.09,6.15,1.06,7.51,2.69,10.24.08.15.17.3.24.46l0,.07a10.26,10.26,0,0,1,.87,2,9.77,9.77,0,0,1,.42,2.1A8.91,8.91,0,0,1,36.58,29Z"/><path class="cls-3" d="M36.58,40.49l-3.79,1.77L30.4,62.12c-.23,3-1.08,4.55-4.3,4.55H18.3a4.62,4.62,0,0,0-1,.1,3.46,3.46,0,0,0-2.68,2.4L12.89,75.5l-.78,2.87h0L10.22,85H4.33A3.86,3.86,0,0,1,.46,81.14V35A10.94,10.94,0,0,1,5.88,25.4h0c4.36-2.6,8-3.32,9.75-7.73l1.85-3.94,2.75-5.89c.71.64,1.4,1.33,2,2s1.31,1.5,1.9,2.3c.43.59.83,1.18,1.23,1.79,2.11,3.4,2.42,6.49,2.19,10.72,0,.63-.07,1.29-.13,2,0,.42-.06.85-.1,1.29a1.64,1.64,0,0,0,.5,1.33l.29.3c1.2,1.15,3.45,3.33,5.57,5.33,1.18,1.11,2.33,2.18,3.22,3A1.58,1.58,0,0,1,36.58,40.49Z"/><path class="cls-1" d="M43.24,66.77H40.82a4.71,4.71,0,0,1,1-.1h1.41S43.24,66.74,43.24,66.77Z"/></svg>