<svg xmlns="http://www.w3.org/2000/svg" viewBox="0 0 85 85"><defs><style>.cls-1{fill:#276ef1;}.cls-2{fill:#9cc0ff;}.cls-3{fill:#fff;}</style></defs><title>Driver Screening</title><g id="Hand_Ref" data-name="Hand Ref"><path class="cls-1" d="M42.5,0,8,19.72v23.6A39.73,39.73,0,0,0,30.26,79L42.5,85l12.24-6A39.73,39.73,0,0,0,77,43.32V19.72Z"/><path d="M69.34,24.67V43.32a32.3,32.3,0,0,1-18,28.82L42.5,76.49l-8.88-4.35a32.1,32.1,0,0,1-18-28.81V24.67L42.5,9.35Z"/><polygon class="cls-2" points="42.42 42.06 42.41 42.08 42.4 42.07 42.42 42.06"/><polygon class="cls-2" points="42.42 42.06 42.42 42.1 42.41 42.08 42.42 42.06"/><polygon class="cls-2" points="42.42 42.06 42.4 42.07 42.38 42.05 42.42 42.06"/><path class="cls-2" d="M33.75,62.08H51v3.1a2.87,2.87,0,0,0-2.87,2.87H36.63a2.87,2.87,0,0,0-2.87-2.87Z"/><polygon class="cls-3" points="39.63 53.15 31.01 42.54 34.01 40.1 39.22 46.52 52.4 25.45 55.67 27.5 39.63 53.15"/></g></svg>