<svg xmlns="http://www.w3.org/2000/svg" viewBox="0 0 180 102"><defs><style>.cls-1{fill:#e2e2e2;}.cls-2{fill:#fff;}.cls-3{fill:#99644c;}.cls-4{fill:#5c3c2e;}.cls-5{fill:#ab644a;}.cls-6{fill:#afafaf;}.cls-7{fill:#febf43;}</style></defs><title>Illo_HRW_Step6</title><g id="BG"><path class="cls-1" d="M180,0H0V102H180Z"/></g><g id="Layer_1" data-name="Layer 1"><path class="cls-2" d="M122,45.93A32,32,0,1,1,90,14,31.9,31.9,0,0,1,122,45.93Z"/><path class="cls-3" d="M97,48.72v9.39H82.39V49C84.85,51.21,97,48.72,97,48.72Z"/><path class="cls-4" d="M82.39,51.32V45.49H97V58A17.31,17.31,0,0,1,91,57.36,20.67,20.67,0,0,1,82.39,51.32Z"/><path class="cls-5" d="M91.24,46.78a1.31,1.31,0,0,0-1.51.11,1.31,1.31,0,0,0-1.51-.11L86,48.18l.43.32a5,5,0,0,0,3.35,1.3,4.64,4.64,0,0,0,3.35-1.3l.43-.32Z"/><path class="cls-3" d="M100.63,35.77l-.43,8.42a5.18,5.18,0,0,0,3.35-3.35l1-3a2.44,2.44,0,0,0-.86-2.48A2.61,2.61,0,0,0,100.63,35.77Z"/><path class="cls-3" d="M79.26,44.3A5.18,5.18,0,0,1,75.91,41l-1-3a2.44,2.44,0,0,1,.86-2.48l.65-.32c.11,0,.22-.11.32-.11h.32a2.15,2.15,0,0,1,1.73.76l.43,7.88Z"/><path class="cls-3" d="M103,35.12a3.88,3.88,0,0,1-.22,1.19l-.43,1.84c-.11.32-.22.76-.32,1.19-.43,1.4-1.19,3.24-1.84,5-1.3,3.24-2.81,6.26-2.81,6.26a9.59,9.59,0,0,1-1.73,2.38,10.51,10.51,0,0,1-2.59,1.62,9.22,9.22,0,0,1-3.35.65,8.8,8.8,0,0,1-3.35-.65,8.06,8.06,0,0,1-4.43-4s-1.4-3-2.81-6.26a48.66,48.66,0,0,1-1.84-5c-.11-.43-.22-.86-.32-1.19l-.43-1.84a3,3,0,0,1-.11-1v-.11a5.87,5.87,0,0,1,0-1.94V32.21A13.25,13.25,0,0,1,89.08,19.14h1.51a13,13,0,0,1,12.12,10.14,10.76,10.76,0,0,1,.1,2.56A18.19,18.19,0,0,0,103,35.12Z"/><path d="M92.83,19.2A25,25,0,0,0,89,18.11a9.53,9.53,0,0,0-9.22,2.6,8.12,8.12,0,0,0-1.63,2.17c-.43,1.08-.65,2.39-1.63,3.14-.33.22-.54.43-.87.65a4.19,4.19,0,0,0-1.63,1.73,4.48,4.48,0,0,0,.22,3.9l.22.33a23.49,23.49,0,0,0,3.9,4.77l-.11-2.93V33.4c1.08-1.3,3.36-.76,5-1.3s2.49-1.73,3.25-3.25a2.67,2.67,0,0,1,2.49-2c.76-.11,2.06-.11,2.93-.33A5.38,5.38,0,0,0,95.65,24c-.11.11,0,.65,0,.87v.87c.11.54.22,1.19.33,1.73a6.1,6.1,0,0,0,1.84,2.82c.54.33,1.19.65,1.73,1a2.6,2.6,0,0,1,1.3,2.39l-.33,3.79L103,35.13C103.35,27.22,103.13,19.2,92.83,19.2Z"/><path class="cls-4" d="M91.24,47a1.37,1.37,0,0,0-.65-.11H88.87a1.37,1.37,0,0,0-.65.11l-1.84.65q-.32.16,0,.32a8.41,8.41,0,0,0,3.35.65A7.71,7.71,0,0,0,93.08,48c.22-.11.22-.32,0-.32Z"/><path class="cls-6" d="M113.48,67.51a31.91,31.91,0,0,1-47.07,0L79.69,64.7a3.48,3.48,0,0,0,2.7-3.45V58H97v3.24a3.57,3.57,0,0,0,2.81,3.45Z"/><path d="M123.74,88H56.15a10.26,10.26,0,1,1,0-20.51h67.69A10.26,10.26,0,1,1,123.74,88Z"/><path class="cls-7" d="M68,76.69H63.49l-1.4-4.32-1.4,4.32H56.15l3.67,2.59-1.4,4.32,3.67-2.7,3.67,2.7-1.4-4.32Z"/><path class="cls-7" d="M82,76.69H77.42L76,72.37l-1.4,4.32H70.08l3.67,2.59-1.4,4.32L76,80.9l3.67,2.7-1.4-4.32Z"/><path class="cls-7" d="M95.88,76.69H91.35l-1.4-4.32-1.4,4.32H84l3.67,2.59-1.4,4.32,3.67-2.7,3.67,2.7-1.4-4.32Z"/><path class="cls-7" d="M109.7,76.69h-4.53l-1.4-4.32-1.4,4.32H97.83l3.67,2.59-1.4,4.32,3.67-2.7,3.67,2.7L106,79.28Z"/><path class="cls-7" d="M123.63,76.69H119.1l-1.4-4.32-1.4,4.32h-4.53l3.67,2.59L114,83.6l3.67-2.7,3.67,2.7L120,79.28Z"/></g></svg>