<svg xmlns="http://www.w3.org/2000/svg" viewBox="0 0 180 102"><defs><style>.cls-1{fill:#e2e2e2;}.cls-2{fill:#fff;}.cls-3{fill:#99644d;}.cls-4{fill:#ffafa1;}.cls-5{fill:#fc8484;}.cls-6{fill:#231f20;}</style></defs><title>Illo_HRW_Step1</title><g id="BG"><path class="cls-1" d="M180,0H0V102H180Z"/></g><g id="Layer_1" data-name="Layer 1"><path class="cls-2" d="M126.9,51a37,37,0,0,1-61.3,27.9A37.45,37.45,0,0,1,53.1,51a36.9,36.9,0,1,1,73.8,0Z"/><path class="cls-3" d="M92.5,21.48c-.2,0-.4-.1-.6-.1s-.6-.1-1-.1C91.4,21.38,92,21.38,92.5,21.48Z"/><path class="cls-3" d="M65.43,78.75s1-4.6.1-6.8L65,70.71l12.45,5.64Z"/><path class="cls-4" d="M98,56.23H81.69V78H98Z"/><path class="cls-5" d="M81.73,59.55V53H98V67a20.34,20.34,0,0,1-6.71-.71A23.79,23.79,0,0,1,81.73,59.55Z"/><path class="cls-3" d="M88,21.38c.3,0,.6-.1,1-.1a8.75,8.75,0,0,0-1.6.2C87.6,21.48,87.8,21.38,88,21.38Z"/><path class="cls-3" d="M114.36,78.74s-.89-4.1-.09-6.06l.45-1.29-11,5.33Z"/><path class="cls-5" d="M91.4,55.58a1.21,1.21,0,0,0-1.4.1,1.21,1.21,0,0,0-1.4-.1l-2.1,1.3.4.3a5.22,5.22,0,0,0,3.1,1.2,4.47,4.47,0,0,0,3.1-1.2l.4-.3Z"/><path class="cls-3" d="M88,21.38a1.27,1.27,0,0,0-.6.1C87.6,21.48,87.8,21.38,88,21.38Z"/><path class="cls-4" d="M105.63,40.52c0,.69-.1,1.49-.1,2.18a1.26,1.26,0,0,1-.1.59,18.29,18.29,0,0,1-.4,2.28c-.3,1.29-.69,2.68-1.09,3.87a26.29,26.29,0,0,1-3.27,6.44.1.1,0,0,1-.1.1c-.2.3-.5.69-.69,1-.59.79-1.29,1.59-2,2.38a9.35,9.35,0,0,1-1,1c-4.26,4.76-9.32,5-13.87,0l-.1-.1a9.34,9.34,0,0,0-1-1,30,30,0,0,1-3.17-4.06,25.12,25.12,0,0,1-2-3.57,24.57,24.57,0,0,1-1.68-4.76,26.94,26.94,0,0,1-.79-5.05c0-.5-.1-.89-.1-1.39V38.64a6.1,6.1,0,0,1,.1-1.29,8.73,8.73,0,0,1,.2-1.68v-.2a9.07,9.07,0,0,1,.1-1.68l.3-.79.2-.69.59-1.49a15.82,15.82,0,0,1,9.61-8.72,14.49,14.49,0,0,1,2-.5c.2,0,.4-.1.59-.1s.59-.1,1-.1h2c.3,0,.59.1,1,.1a1.26,1.26,0,0,1,.59.1,11.59,11.59,0,0,1,2,.5A15.79,15.79,0,0,1,104,30.81l.59,1.49.2.69.3.79c0,.59.1,1.09.1,1.68v.2a12.3,12.3,0,0,1,.3,2.68v.3A6.68,6.68,0,0,1,105.63,40.52Z"/><path class="cls-3" d="M98.3,79.18l-.3-.1V59.28c1.4-2.2,3.7-4.6,4.1-8.9.3-2.7,1-6.9-2.8-9.2-.1,0-.1-.1-.2-.1a18.39,18.39,0,0,1-9.2-8.4,18.39,18.39,0,0,1-9.2,8.4c-.1,0-.1.1-.2.1-3.8,2.2-3.1,6.5-2.8,9.2.5,4.3,2.65,6.79,4,8.64V79l-.23.18c-11,2.4-20.5-7.9-16.7-18.2l10.3-28.7.6-1.5A16,16,0,0,1,85.4,22a14.61,14.61,0,0,1,2-.5c.2,0,.4-.1.6-.1s.6-.1,1-.1h2c.3,0,.6.1,1,.1a1.27,1.27,0,0,1,.6.1,11.69,11.69,0,0,1,2,.5,15.94,15.94,0,0,1,9.7,8.8l.6,1.5L115.2,61C119,71.28,109.5,81.58,98.3,79.18Z"/><path class="cls-6" d="M90,88a35.69,35.69,0,0,1-24.59-9.29l13.27-3.16a3.93,3.93,0,0,0,3.06-3.88V68H98.06V71.7a3.93,3.93,0,0,0,3.06,3.88l13.25,3.18C109.84,83.43,100.06,88,90,88Z"/><path class="cls-5" d="M91.4,55.58a1.21,1.21,0,0,0-1.4.1,1.21,1.21,0,0,0-1.4-.1l-2.1,1.3.4.3a5.22,5.22,0,0,0,3.1,1.2,4.47,4.47,0,0,0,3.1-1.2l.4-.3Z"/></g></svg>