<svg xmlns="http://www.w3.org/2000/svg" viewBox="0 0 180 102"><defs><style>.cls-1{fill:#e2e2e2;}.cls-2{fill:#fff;}.cls-3{fill:#231f20;}.cls-4{fill:#276ef1;}</style></defs><title>Illo_HRW_Step2</title><g id="Layer_1" data-name="Layer 1"><path class="cls-1" d="M180,0H0V102H180Z"/><path class="cls-2" d="M124.9,26.7V27h-.4Z"/><path class="cls-2" d="M101.9,53.7,76.5,79.1H180v5H134.3V102h-5V84.1H38.2V102h-5V84.1H0v-5H69.4L117.5,31H0V26H59.3V.08h5V26h58.2L148.57-.07h7.1L124.5,31,106.9,48.7l73.1-.1v5Z"/><path class="cls-3" d="M85.08,81.52a10.07,10.07,0,0,1-.3,2.5,11.57,11.57,0,0,1-22.6,0,10.57,10.57,0,0,1,0-5,11.54,11.54,0,0,1,15.5-8.3,10.26,10.26,0,0,1,4.2,2.9,11.83,11.83,0,0,1,2.9,5.4A10.07,10.07,0,0,1,85.08,81.52Z"/><path class="cls-4" d="M85.1,81.6a10.06,10.06,0,0,1-.33,2.5H62.2a10.16,10.16,0,0,1-.34-2.51,10,10,0,0,1,.3-2.49H69.5l8.25-8.34a10.31,10.31,0,0,1,4.2,2.92L76.6,79.1h8.2A6.93,6.93,0,0,1,85.1,81.6Z"/><path class="cls-2" d="M134.7,62.1H45.4a11,11,0,0,1,0-22h89.3a11,11,0,0,1,0,22Z"/><path class="cls-4" d="M45.2,50.1c.1.3.3.7.4,1l4.2,7.3L54,51.1a4.89,4.89,0,0,0-7.7-5.9A5.14,5.14,0,0,0,45.2,50.1Z"/><path class="cls-2" d="M49.8,50.1a1.5,1.5,0,1,0-1.5-1.5A1.5,1.5,0,0,0,49.8,50.1Z"/><path class="cls-3" d="M127.4,48.6H63.6v5h63.8Z"/></g></svg>